/* XPM */
static char *_e8567d72ead4b61810d961662a409ccV0P4Qc3HMKQVIimm[] = {
/* columns rows colors chars-per-pixel */
"64 64 256 2 ",
"   c black",
".  c #0000A8",
"X  c #00A800",
"o  c #00A8A8",
"O  c #A80000",
"+  c #A800A8",
"@  c #A85400",
"#  c gray66",
"$  c gray33",
"%  c #5454FC",
"&  c #54FC54",
"*  c #54FCFC",
"=  c #FC5454",
"-  c #FC54FC",
";  c #FCFC54",
":  c gray99",
">  c #ECECEC",
",  c gainsboro",
"<  c #D0D0D0",
"1  c #C0C0C0",
"2  c #B4B4B4",
"3  c gray66",
"4  c #989898",
"5  c gray55",
"6  c #7C7C7C",
"7  c gray44",
"8  c #646464",
"9  c gray33",
"0  c #484848",
"q  c gray22",
"w  c #2C2C2C",
"e  c #202020",
"r  c #FC0000",
"t  c #EC0000",
"y  c #E00000",
"u  c #D40000",
"i  c #C80000",
"p  c #BC0000",
"a  c #B00000",
"s  c #A40000",
"d  c #980000",
"f  c #880000",
"g  c #7C0000",
"h  c #700000",
"j  c #640000",
"k  c #580000",
"l  c #4C0000",
"z  c #400000",
"x  c #FCD8D8",
"c  c #FCB8B8",
"v  c #FC9C9C",
"b  c #FC7C7C",
"n  c #FC5C5C",
"m  c #FC4040",
"M  c #FC2020",
"N  c #FC0000",
"B  c #FCA85C",
"V  c #FC9840",
"C  c #FC8820",
"Z  c #FC7800",
"A  c #E46C00",
"S  c #CC6000",
"D  c #B45400",
"F  c #9C4C00",
"G  c #FCFCD8",
"H  c #FCFCB8",
"J  c #FCFC9C",
"K  c #FCFC7C",
"L  c #FCF85C",
"P  c #FCF440",
"I  c #FCF420",
"U  c #FCF400",
"Y  c #E4D800",
"T  c #CCC400",
"R  c #B4AC00",
"E  c #9C9C00",
"W  c #848400",
"Q  c #706C00",
"!  c #585400",
"~  c #404000",
"^  c #D0FC5C",
"/  c #C4FC40",
"(  c #B4FC20",
")  c #A0FC00",
"_  c #90E400",
"`  c #80CC00",
"'  c #74B400",
"]  c #609C00",
"[  c #D8FCD8",
"{  c #BCFCB8",
"}  c #9CFC9C",
"|  c #80FC7C",
" . c #60FC5C",
".. c #40FC40",
"X. c #20FC20",
"o. c #00FC00",
"O. c #00FC00",
"+. c #00EC00",
"@. c #00E000",
"#. c #00D400",
"$. c #04C800",
"%. c #04BC00",
"&. c #04B000",
"*. c #04A400",
"=. c #049800",
"-. c #048800",
";. c #047C00",
":. c #047000",
">. c #046400",
",. c #045800",
"<. c #044C00",
"1. c #044000",
"2. c #D8FCFC",
"3. c #B8FCFC",
"4. c #9CFCFC",
"5. c #7CFCF8",
"6. c #5CFCFC",
"7. c #40FCFC",
"8. c #20FCFC",
"9. c #00FCFC",
"0. c #00E4E4",
"q. c #00CCCC",
"w. c #00B4B4",
"e. c #009C9C",
"r. c #008484",
"t. c #007070",
"y. c #005858",
"u. c #004040",
"i. c #5CBCFC",
"p. c #40B0FC",
"a. c #20A8FC",
"s. c #009CFC",
"d. c #008CE4",
"f. c #007CCC",
"g. c #006CB4",
"h. c #005C9C",
"j. c #D8D8FC",
"k. c #B8BCFC",
"l. c #9C9CFC",
"z. c #7C80FC",
"x. c #5C60FC",
"c. c #4040FC",
"v. c #2024FC",
"b. c #0004FC",
"n. c #0000FC",
"m. c #0000EC",
"M. c #0000E0",
"N. c #0000D4",
"B. c #0000C8",
"V. c #0000BC",
"C. c #0000B0",
"Z. c #0000A4",
"A. c #000098",
"S. c #000088",
"D. c #00007C",
"F. c #000070",
"G. c #000064",
"H. c #000058",
"J. c #00004C",
"K. c #000040",
"L. c #282828",
"P. c #FCE034",
"I. c #FCD424",
"U. c #FCCC18",
"Y. c #FCC008",
"T. c #FCB400",
"R. c #B420FC",
"E. c #A800FC",
"W. c #9800E4",
"Q. c #8000CC",
"!. c #7400B4",
"~. c #60009C",
"^. c #500084",
"/. c #440070",
"(. c #340058",
"). c #280040",
"_. c #FCD8FC",
"`. c #FCB8FC",
"'. c #FC9CFC",
"]. c #FC7CFC",
"[. c #FC5CFC",
"{. c #FC40FC",
"}. c #FC20FC",
"|. c #FC00FC",
" X c #E000E4",
".X c #C800CC",
"XX c #B400B4",
"oX c #9C009C",
"OX c #840084",
"+X c #6C0070",
"@X c #580058",
"#X c #400040",
"$X c #FCE8DC",
"%X c #FCE0D0",
"&X c #FCD8C4",
"*X c #FCD4BC",
"=X c #FCCCB0",
"-X c #FCC4A4",
";X c #FCBC9C",
":X c #FCB890",
">X c #FCB080",
",X c #FCA470",
"<X c #FC9C60",
"1X c #F0945C",
"2X c #E88C58",
"3X c #DC8854",
"4X c #D08050",
"5X c #C87C4C",
"6X c #BC7848",
"7X c #B47044",
"8X c #A86840",
"9X c #A0643C",
"0X c #9C6038",
"qX c #905C34",
"wX c #885830",
"eX c #80502C",
"rX c #744C28",
"tX c #6C4824",
"yX c #5C4020",
"uX c #543C1C",
"iX c #483818",
"pX c #403018",
"aX c #382C14",
"sX c #28200C",
"dX c #600064",
"fX c #006464",
"gX c #006060",
"hX c #00001C",
"jX c #00002C",
"kX c #302410",
"lX c #480048",
"zX c #500050",
"xX c #000034",
"cX c gray11",
"vX c #4C4C4C",
"bX c gray36",
"nX c gray25",
"mX c gray19",
"MX c #343434",
"NX c #D8F4F4",
"BX c #B8E8E8",
"VX c #9CDCDC",
"CX c #74C8C8",
"ZX c #48C0C0",
"AX c #20B4B4",
"SX c #20B0B0",
"DX c #00A4A4",
"FX c #009898",
"GX c #008C8C",
"HX c #008484",
"JX c #007C7C",
"KX c #007878",
"LX c #007474",
"PX c #007070",
"IX c #006C6C",
"UX c #980088",
/* pixels */
"#XlX#XlX#XlXlX@X@X@X@X#X@X@X@X@XlX#X#X@XlX@X@X@X#XlX@X@XlX@X@XlX@X@X@X@X@Xz #X#X#X#X#Xz #Xz z z z z #Xz z z z z z z z z z z z z ",
"z z z z z z z z z z z z z z   z z z z z z z z z z z z z z z z z z z z z z z z z z z z z z z z z z z #X#X#X@XlX@X@X@X@X@X#X#Xz #X",
"z z z z z z z z z z z z z z z z z z z z z z z z z z z z z z z z z z z z z z z z z z z z z z z z z z z z #Xz z #Xz z z z z z z z ",
"z z z z z #X#Xz #X#Xz z z z z z z z z z z z z z z z z z z z z z z z z z z z z z z z z z z z z z z z z z z z #Xz z z z z #X#Xz #X",
"z z z z z @X#X#X#X#Xz #X#Xz z z #Xz z z z z z z z z z z z z z z z z z z z #X#X#X@X@X#X#Xz z z z z z z z z #XlXz #Xz z #Xz z z z ",
"z z z z #X@X#X#X#X#X@X@X@X#Xz z z z z z z z z z z z z z z z z z z z z #XlX#X@X@X@X@XlX#X#Xz z z z z z z z z z z #Xz z z z #Xz z ",
"#Xz z #X@X@XlX#X@X@X@X@X@XlX#X#Xz lX#Xz z z z z z z z z z z z z z z z z #X#X@X@X@X#XlX@X@Xz #X#Xz z z z z z z z z z #X#Xz z z z ",
"#Xz z #XdXdX@X@X@X#X@X@X@X@X@Xz z #X#Xz z z z z   z z z z z z z z z z #Xz #Xz z @X#XlX@X#X#X@X#X@XlXz z z z #X#Xz #X#Xz #Xz z z ",
"lXz z @X+X+X@X@X#XlX@X@X@X@X@X#Xz z z z z z z z z z z z z z z z z z z z z z #X#X#X#XlX#X#X@XdXlX@Xz z z z #X#Xz z #XlXz #Xz #Xz ",
"@X#Xz #X+X+XdXdX@XlX@X#XlX@XlXlXz z z z z z z z z z z z z z z z z lXz z z #XlXz #X#X#X#X#XdXdX@Xz z z z z #X#X#Xz z z z #X#X#X#X",
"#X@Xz z +XdXdXdX8 8 dX@X@X#X#X#X#X#Xz z z z z z z z z z z z z z z z z z #Xz #X#X#Xz lXlX@X+X@Xz z z z z z #XlX#X#X#X@X@X@X@X@X@X",
"@X#Xz z 8 dX8 8 8 8 8 dXdX@X@X@X#XlX#X#Xz z z z z z z z z z z z z z z z z z #X#X@X@X@X@XdX@Xz z z z z z z #XlX@X@X@X@X@X@X@XdX@X",
"@X#Xz z dX+XdX+XdX8 8 +X+XdX+XdXlX#Xz z z z z z z z z z z z z z z z #X#X#X@X@XdXdXdX@XdXdXlXz z z z z z z #X@X8 dX+X+X8 +X8 8 dX",
"#XlX#Xz @X@XdX@XdXdX@X@XdX@X@XlX@X#Xz z z z z z z z z z z z z z z z #XlX#X@X#XlX@X@X@XlX#Xz z z z z z z z z #X@X@X@XdX@X@XdX@X@X",
"z z z z z z z z z z z z z z z z z z z z z z z z z z z z z z z z z z z z z z z z z z z z z z z z z z z z z z z z z z z z z z z z ",
"z z z z z z z z z z z z z z z z z z z z z z z z z z z z z z z z z z z z z z z z z z z z z z z z z z z z z z z z z z z z z z z z ",
"z z #X#Xz z #X#X#X#Xz z z z z z z #Xz z z z z z z z z z z z z z z z z z z z z z z z #Xz z z z z z z z z z z z z z z z z z z z z ",
"z lXz z z z z z #X#X#X#X#X#X#Xz z z #Xz z #X#Xz #Xz z z z #Xz z z z z z z z z z z z z z z z #X#Xz z z #X#X#X#Xz z z z z z z z z ",
"#XlX@X#Xz #X#X@X@XlX@X@XlX#X#Xz z z z z z z z #XlXz z z z @X#X#XlXz z z z z z z z z z #X#Xz #Xz lX@X@X@XlX@X#X#Xz z z z z z z z ",
"#XlX@X#X@XlX@X#X@X#X@X#X#X@XdXz z z z z z z z #Xz z z z z z @X#Xz #X@X#Xz z z z z z z z z #Xz @X@X@XdX@X#X@X@XlX#Xz z z z #XlX#X",
"+XdX+XdXdXdXdXdXdXdXdX+X8 8 8 z z z z z z z z @Xz #Xz z z z z z z lXz z #Xz z z z z #Xz z #X#X#X@X@XlXz z @X#X@XlX#Xz z #X@X@X#X",
"8 8 8 8 +X8 +X8 8 +X+X8 8 8 8 z z #X@XlX#Xz #XlXlX#Xz lXz z z z z #Xz @X@Xz z z z #Xz z z z z #X#X#Xz z z z z z z z z z #X@X#Xz ",
"8 8 8 8 8 8 8 dX+X8 8 8 8 +X8 z z @X#X#X#X@Xz z #X#X#XlXz #X@XlXlX#X#XlX@X@X#Xz z #X#XlXz z z z #X#Xz z z z z z z z z lX@X#Xz z ",
"8 8 8 8 8 8 #X#Xz z 8 8 8 8 8 z z @X@XlXlXz z z #XlX#X#X#X#X@XdXdX@X@X#X@XdX#Xz z #XlX#X#X#X#Xz z z #X#Xz z z z z z z #XlXlX@XdX",
"8 +X8 8 8 8 dXlXz #X8 8 8 8 8 @Xz @XdXdXlXlX@X#Xz #X@X@XlXdXdX@X8 @XdX@X@X@X#Xz z z lX@XdX@X#X#X#Xz #X#X#X#X#X#Xz #XlX@X@X@XdX+X",
"8 dX8 8 8 8 8 8 8 8 8 8 8 8 8 @Xz z dX+XdX+X@X8 dX+XdXdX@X@X8 8 8 dXdX+X@X@X#Xz z z #X@X@X@X@X@XdX#X@X@X@X@XdX@X@X@XdX+X+X+X+X8 ",
"@XlX@XdX+X8 8 8 +X8 8 8 +X+X@X@Xz z dXdX@XdXdXdXdXdX@X@X+X@XdXdXdX@X@XdX@X@X@XlX  #XdXdX@XdX+X8 dXdX8 8 +XdX+XdX+X+X+X+XdX@X@XlX",
"#Xz z z z z z z z z z z z z z z   z #Xz z #Xz z #Xz z #Xz z #Xz #Xz z z z z z z z z lXdXdXdX@XdXdX+XdXdX@XdXdX@XlXlX#X#Xz z z z ",
"lX#Xz z z z #Xz z #X#XlX#Xz z #Xz #Xz #XlXlX#X#X#XlXlX@X@X@XlXlX#X#X@X@X#Xz z z z z z z z z z z z z z z z z z z z z z z z z z #X",
"@XdXdX+XdXdX@X@XdXdX@XlX@XdXdXdXdXdX@X@X@X+X@X+X+XdX+X8 dXdX@XdXdX+X8 dXlXz z z z z z z z z z z z z z z z z z z z z z z z z z z ",
"+X+X8 8 8 +X@X@X@X@XdX@XdXdX+X+XdXdXdX+X+X+X+X+X+X8 8 8 8 +X+X8 8 8 8 lXz z z z z z z z z z z #Xz z z z z z z z z z z z z z z #X",
"dX@Xz z z #X8 +X+X+X8 8 8 8 8 8 8 8 7 7 7 7 7 7 7 8 +X+X8 8 +X8 +XdXlXz z z z z z z z z z z #X#X#Xz z z z z z z z z z z z z z z ",
"dX+X@XdX+X8 8 8 8 8 8 8 8 8 8 7 7 7 7 7 7 7 7 7 7 7 7 7 7 7 8 8 8 8 8 @Xz z #XlXz z z z z z #Xz z #Xz z z z z #Xz z z z z z z z ",
"8 8 dXdXlX#Xz z z lX@X+X+X+XdX@X#Xz z z z lX@XdXdX+X+X+X+XdX@X@XlX#X#X#X#Xz #Xz z z z z z z z z z z #X#Xz z z lX#Xz z z z z z z ",
"z z z z z #Xz z z z z z z z z #Xz z z z z z z z z #XlX@X@XlXz z z z z z z z z z #Xz z z z z z z z z #X#Xz z z @X@XlX#Xz #Xz z z ",
"#X#Xz @Xz z @X@X@X@X@X@X@X@X#X@X#XlX@Xz #X#X#X#Xz #X#X@Xz z #X#X#XlXz z z z z z #X#Xz lXz z z z #X#X#Xz #Xz z lX@X@X@XlX#X#XlX@X",
"#X@X#X@Xz #X#XdX@X@XdXdX8 dX@X@X+XdX@X@X@X@X@X#X@X@X#X#Xz z @X@XdX@X@X#X#X@X+XdX#XlX@X8 8 dX@X#X@X@X@X@XlXz z lXdX@X@X@X@X@XdX+X",
"@X@XdX#Xz z #X@X@XdX@XdX8 8 8 +X+X+XdX+X8 dX@X@X@XdX@X@Xz z @X@X8 dXlX@X@X@X@X@X@X@X@XdXdX@X@XdX@XdX@X@X@Xz z #X@XdXdXdX+X+X8 8 ",
"z z z z z z z z z z z z z z z z z #X@X+XdX8 @X@XdX8 +X@Xz z @X@XdXdX@XdX@XdXdX+XdX@X@XdX+XdXdX@X@X@X@X#Xz z z z #XlX@XlXlX@X@XdX",
"z z z z z z #Xz z z z z z z z z z z z z z z z z z z z z z z z z z z z #X#Xz #Xz z z z z z z z z z z z z z z z z z z z z z z z z ",
"#Xz z z z z z #Xz z z z z z #XlXz z z z z z z z z z z z z z z z z z z z z z z z z z z z #Xz z z z z z z #Xz z z z z z z z z z z ",
"lXlXz #Xz #Xz z z z z z z #X#X@X#Xz z z z z z z z z #Xz z z z z z z z z z z z z z z z z z #Xz z z z z z z z z z z z z z z z z z ",
"@X#X#X#Xz z z z z z z z z z z z #Xz z z z z z z z z z z z z z z z z z z z z z z z z z z #Xz lXz z z z z z z z #Xz z z z z z z z ",
"@XlX@X#Xz z z z z z z z z z z #XlXz z z z z #Xz z z z z z z z z z z z z z z z z z z z z @X@X#Xz #Xz z z z z z z z z z z #Xz z z ",
"dXdX#X@X#X#X#XlXz z z z z z z @X@Xz z z z #XlXz z z #XlXz z z #X#XlX#XlX#X#Xz z z z z z @X@X@X@XlX#XlXz z z z z z z z z #X#X@X#X",
"dX@X@X#X#XlXz z z z z z z z z #X@X#Xz z z #X@X#Xz z z z z z z z #X#XlX@X#X#X#Xz z z z z #X@X#X@XlX#XlXlX@X#X#X#X#Xz z #Xz z #X#X",
"@X+XdXdX@X#Xz z z z z z z z z lX+X#Xz z z z #XlX#X#Xz #Xz z z z z #X#X#X@X#Xz z z #Xz z #X@X#X#X#X#X@X#X#X#X#X@XlX@X#XlXz z z #X",
"z z lXdX+XdX@XlXz #X#XlX#X#X#X@X@X#Xz z z z z z #X@Xz z #Xz z z z z z #X#X#Xz z z z z z z @X@Xz z z #X#Xz z z #X#X#X@X@XdX@XdX@X",
"z z z z lX+XdX@X@X#XlX#X#XlX#XdX@X#Xz z z z z z z z z z z z z z #X#X#X#Xz #Xz z z z z z z dX@X#Xz #X#Xz z z #X#X#X@X@XdX@X@XdX@X",
"lXz z z z #X@XdX+XdXdX@X@XdXdXdX@Xz z z z z z z z z z z z z z z z z z z z z z z z z z z z dX@X@X@X@X@X@X@X@X#Xz z @XdX8 8 8 +X8 ",
"@X@X#Xz z z z @X@X+XdXdXdX+XdX@X@Xz z z z z z z z z z z z z z z z #Xz z z z z z z z z z z @X@XlX@XdX8 8 8 8 8 +XdX8 8 8 8 8 8 8 ",
"z z z z z z z z #X@XlX#XlX@X@X#Xz z z z z z z z z z z z z z z z z z z z z z z z z z z z z @X@X@X+XdX8 dX8 +X8 8 8 8 8 8 8 8 8 8 ",
"z z z z z z z z z z z z z z z z z z z z z z z z z z z z z z z z z z z z z z z z z z z z z z @X@XdX@X@X@XdX8 +X+XdXdXdX+XdX+XdX+X",
"z z z z z z #Xz #Xz z z z z z z z z z z z z z z z z z z z z z z z z z z z z z z z z z z z z z z z z z z z z z #Xz z z z #Xz z z ",
"z z z z z z #Xz z z z #Xz z z z z z z z z z z z z z z z z #Xz z z z z z z z z #Xz z #Xz z z z z z z z z z z z z z z z z z #X#X#X",
"z z z z z z z z #X#Xz z z #Xz #Xz z z z z z z z z z z z z z #Xz z z @Xz #X#Xz #X#X#Xz #X@X@XlX#Xz z z z #Xz z z z z z z z z z z ",
"z z z z z z z z #Xz #X#X#Xz z #X@X@X#XlX#Xz #Xz z z z #X#X@X#Xz #Xz dXlX#Xz #X#Xz z lX@XdX8 @XdX#X#XlX#X#Xz z z z z z z z z z z ",
"z @X#Xz z z z z z #X#XlX#Xz z z #X@X@XdX@XlX#Xz #X#Xz z #X#Xz z z z @Xz #X#Xz #Xz lX#Xz @X8 8 8 dX@X@XdX#X#X@Xz z z z z z z z z ",
"#X@X#X#Xz z z z #XlXz z z z z z @X@XdX@XdX@X#Xz z @X@X#XlXz z z #XlX@X@X#X#X#X#Xz #X#XlX@X8 8 8 8 8 8 8 @X@X@Xz z z z z z z z z ",
"@XdX@X#Xz z #X#XlXz z #X#X#Xz #X#X#X@X@X@X@X@X@X@X@X@X#X@X@XlXz #X#X@XlX@X@X@X@X@X+X+X8 8 8 8 8 8 8 8 dXdX@X@Xz z z z z z z z z ",
"@XdX@X@X#Xz #X@X@X#X@X@X@XlX#X#XdX@X@X@X@X@X+X+X+X8 +XdX@X@X@Xz #X@X@X+XdXdX@X@XdXdX+X8 8 8 8 8 8 8 8 dX#Xz #Xz z z z z z z #XlX",
"dX+XdX#Xz z #X@X@X@X8 +X8 8 dX+X8 8 8 8 dX8 8 8 8 8 8 +X@XdX@X#X@X@XdX+X8 8 dX@XdXdX8 8 8 8 8 8 8 8 8 dXdX@X@Xz z z z z z lXdX8 ",
"8 dX@Xz z z lXdX@X+X8 8 8 8 8 8 8 8 8 8 8 8 8 8 8 8 8 8 8 dX@X@X@X+X8 8 8 8 8 8 8 8 8 8 8 8 8 8 +X8 #X@X@XdX8 lXz z z z z z lXdX",
"z z z z z z #X#XdXdX8 8 8 8 8 8 8 +X+XdX8 +X@X@X@XdX@X@Xz z z z z #XlXdX+X+X+X8 8 8 8 8 8 8 8 8 8 +X8 8 @XdX+X@Xz z z z z z z z "
};
