/* XPM */
static char *e6cc969fd9b94d7cb1f6519ad08cff61m3cXHmOJNdOlNaMM[] = {
/* columns rows colors chars-per-pixel */
"64 64 256 2 ",
"   c black",
".  c #0000A8",
"X  c #00A800",
"o  c #00A8A8",
"O  c #A80000",
"+  c #A800A8",
"@  c #A85400",
"#  c gray66",
"$  c gray33",
"%  c #5454FC",
"&  c #54FC54",
"*  c #54FCFC",
"=  c #FC5454",
"-  c #FC54FC",
";  c #FCFC54",
":  c gray99",
">  c #ECECEC",
",  c gainsboro",
"<  c #D0D0D0",
"1  c #C0C0C0",
"2  c #B4B4B4",
"3  c gray66",
"4  c #989898",
"5  c gray55",
"6  c #7C7C7C",
"7  c gray44",
"8  c #646464",
"9  c gray33",
"0  c #484848",
"q  c gray22",
"w  c #2C2C2C",
"e  c #202020",
"r  c #FC0000",
"t  c #EC0000",
"y  c #E00000",
"u  c #D40000",
"i  c #C80000",
"p  c #BC0000",
"a  c #B00000",
"s  c #A40000",
"d  c #980000",
"f  c #880000",
"g  c #7C0000",
"h  c #700000",
"j  c #640000",
"k  c #580000",
"l  c #4C0000",
"z  c #400000",
"x  c #FCD8D8",
"c  c #FCB8B8",
"v  c #FC9C9C",
"b  c #FC7C7C",
"n  c #FC5C5C",
"m  c #FC4040",
"M  c #FC2020",
"N  c #FC0000",
"B  c #FCA85C",
"V  c #FC9840",
"C  c #FC8820",
"Z  c #FC7800",
"A  c #E46C00",
"S  c #CC6000",
"D  c #B45400",
"F  c #9C4C00",
"G  c #FCFCD8",
"H  c #FCFCB8",
"J  c #FCFC9C",
"K  c #FCFC7C",
"L  c #FCF85C",
"P  c #FCF440",
"I  c #FCF420",
"U  c #FCF400",
"Y  c #E4D800",
"T  c #CCC400",
"R  c #B4AC00",
"E  c #9C9C00",
"W  c #848400",
"Q  c #706C00",
"!  c #585400",
"~  c #404000",
"^  c #D0FC5C",
"/  c #C4FC40",
"(  c #B4FC20",
")  c #A0FC00",
"_  c #90E400",
"`  c #80CC00",
"'  c #74B400",
"]  c #609C00",
"[  c #D8FCD8",
"{  c #BCFCB8",
"}  c #9CFC9C",
"|  c #80FC7C",
" . c #60FC5C",
".. c #40FC40",
"X. c #20FC20",
"o. c #00FC00",
"O. c #00FC00",
"+. c #00EC00",
"@. c #00E000",
"#. c #00D400",
"$. c #04C800",
"%. c #04BC00",
"&. c #04B000",
"*. c #04A400",
"=. c #049800",
"-. c #048800",
";. c #047C00",
":. c #047000",
">. c #046400",
",. c #045800",
"<. c #044C00",
"1. c #044000",
"2. c #D8FCFC",
"3. c #B8FCFC",
"4. c #9CFCFC",
"5. c #7CFCF8",
"6. c #5CFCFC",
"7. c #40FCFC",
"8. c #20FCFC",
"9. c #00FCFC",
"0. c #00E4E4",
"q. c #00CCCC",
"w. c #00B4B4",
"e. c #009C9C",
"r. c #008484",
"t. c #007070",
"y. c #005858",
"u. c #004040",
"i. c #5CBCFC",
"p. c #40B0FC",
"a. c #20A8FC",
"s. c #009CFC",
"d. c #008CE4",
"f. c #007CCC",
"g. c #006CB4",
"h. c #005C9C",
"j. c #D8D8FC",
"k. c #B8BCFC",
"l. c #9C9CFC",
"z. c #7C80FC",
"x. c #5C60FC",
"c. c #4040FC",
"v. c #2024FC",
"b. c #0004FC",
"n. c #0000FC",
"m. c #0000EC",
"M. c #0000E0",
"N. c #0000D4",
"B. c #0000C8",
"V. c #0000BC",
"C. c #0000B0",
"Z. c #0000A4",
"A. c #000098",
"S. c #000088",
"D. c #00007C",
"F. c #000070",
"G. c #000064",
"H. c #000058",
"J. c #00004C",
"K. c #000040",
"L. c #282828",
"P. c #FCE034",
"I. c #FCD424",
"U. c #FCCC18",
"Y. c #FCC008",
"T. c #FCB400",
"R. c #B420FC",
"E. c #A800FC",
"W. c #9800E4",
"Q. c #8000CC",
"!. c #7400B4",
"~. c #60009C",
"^. c #500084",
"/. c #440070",
"(. c #340058",
"). c #280040",
"_. c #FCD8FC",
"`. c #FCB8FC",
"'. c #FC9CFC",
"]. c #FC7CFC",
"[. c #FC5CFC",
"{. c #FC40FC",
"}. c #FC20FC",
"|. c #FC00FC",
" X c #E000E4",
".X c #C800CC",
"XX c #B400B4",
"oX c #9C009C",
"OX c #840084",
"+X c #6C0070",
"@X c #580058",
"#X c #400040",
"$X c #FCE8DC",
"%X c #FCE0D0",
"&X c #FCD8C4",
"*X c #FCD4BC",
"=X c #FCCCB0",
"-X c #FCC4A4",
";X c #FCBC9C",
":X c #FCB890",
">X c #FCB080",
",X c #FCA470",
"<X c #FC9C60",
"1X c #F0945C",
"2X c #E88C58",
"3X c #DC8854",
"4X c #D08050",
"5X c #C87C4C",
"6X c #BC7848",
"7X c #B47044",
"8X c #A86840",
"9X c #A0643C",
"0X c #9C6038",
"qX c #905C34",
"wX c #885830",
"eX c #80502C",
"rX c #744C28",
"tX c #6C4824",
"yX c #5C4020",
"uX c #543C1C",
"iX c #483818",
"pX c #403018",
"aX c #382C14",
"sX c #28200C",
"dX c #600064",
"fX c #006464",
"gX c #006060",
"hX c #00001C",
"jX c #00002C",
"kX c #302410",
"lX c #480048",
"zX c #500050",
"xX c #000034",
"cX c gray11",
"vX c #4C4C4C",
"bX c gray36",
"nX c gray25",
"mX c gray19",
"MX c #343434",
"NX c #D8F4F4",
"BX c #B8E8E8",
"VX c #9CDCDC",
"CX c #74C8C8",
"ZX c #48C0C0",
"AX c #20B4B4",
"SX c #20B0B0",
"DX c #00A4A4",
"FX c #009898",
"GX c #008C8C",
"HX c #008484",
"JX c #007C7C",
"KX c #007878",
"LX c #007474",
"PX c #007070",
"IX c #006C6C",
"UX c #980088",
/* pixels */
"z l k h f d d eX0Xf l f f f = n z l k h f d d eX0Xf l f f f = n z l k h f d d eX0Xf l f f f = n z l k h f d d eX0Xf l f f f m n ",
"z l k h g d d eX0Xf k f f f m n z l h h f d d eXm d l g f f = n z l h k f d d eXm d l g f f = n z l h h f d d eXm d l f f f = n ",
"z l h h g d d eX0Xf k g f f 0Xn z l g h f d d eXm eXl g f f = n z l g k f d d eXm eXl g f f = n z l g h f d d eXm eXl g f f = n ",
"z l h h g d d eX0Xd k h f f 0Xn z k f h f d d eX= 0Xl h f f = n z k f k g d d eXm 0Xl h f f = n z k f h f d eXeX= 0Xl g f f = n ",
"z l h g h d d d 0Xd h k f f eXn z h d h f d d eX= m k k f f n = z h d k g f d d 0Xm h l f f n = z h d h f d eXeX= m l g f f n = ",
"z k g f h d d d 0Xd h k f f eXn z g d h g d d eXm = h k f f n = z g d k h f d d eXm f l f f n = z g eXh g d eXeXm = l h g f n = ",
"z k g d h d d d 0XeXg k f f eXn z g d g h d d d 0X= g k f f n m z g d g k f d d eXm eXl f f n m z g eXg h d 0XeX0X= l h g f n m ",
"z k g d h f d d 0XeXf h f f d n z g eXf h d d d 0X= g k f f n 0Xz g eXf k g d d d 0Xm l f f n 0Xz g 0Xf h d 0XeX0X= l h g f n 0X",
"z k g d h g d d eX0Xf h f f d n z g 0Xd h d d d 0X= g k f f = 0Xz g 0Xd k g d d d eXm l f f = 0Xz g 0Xd k d 0X0X0X= l h g f = 0X",
"z k f d g h d d eX0Xf h f f d n z h 0XeXh d d d 0X= h k f f = eXz h 0XeXk g d d d eXm l f f = eXz g 0XeXl d eX0X0X= l h g f = eX",
"z k f d f h d d eX0Xf g f f d n z h eX0Xh d d d 0X= k h f f = eXz h eX0Xl g d d d eXm l f f = eXz g eX0Xl d eX0X0X= l h f f = eX",
"z h f d d k f d d 0Xf f f f d n z k d 0Xh d d d m = l h f f = eXz k d 0Xl g f eXd eXm l f f = eXz g eX0Xl d eX0X0X= l g f f = eX",
"z h d d d k f d d 0Xf f f f d n z k f 0Xh d d d = m l g f f = 0Xz k f 0Xl h f eXg eXm l f f = 0Xz h d 0Xl f eXeX0X= l g f f = 0X",
"z h d d d k g d f 0Xd f f f d = z k g m h d d eX= eXk f f f = m z k g m z h f 0Xk d 0Xl f f = m z k d 0Xl f eXeX0X= k f f f = m ",
"z h d d eXk h f f 0XeXd f f eX= z k g = h d d eX= f h f f f = = z k g = z h g eXf eX0Xl f f = =   l g 0Xz f eXeX0X= h f f f = = ",
"z h d d eXh k f f eX0XeXf f eX= z k g = h d d 0X= h g f f f = = z k g = z k h f eX0Xd z g f = =   z k d z f eXeX0X= g f f f = = ",
"  h d d eXg k g f d m 0Xf f eX= z k g = h d d 0X= l g f f f m n z k g =   z k h f d k z h f m n     l h z g eXeX0X= g f f f m n ",
"  k d d eXf k h f f 0Xm f f 0X= z k g = h d d 0X= l g f f f 0Xn z k g =     z z z z z z k f 0Xn         z g eXeX0X= g f f f 0Xn ",
"  k f d eXd h k f f eXm d f m = z k g = h d d 0X= l g f f f eXn z k g =   z k z g l h l l f eXn   z k l   g eX0X0X= g f f f eXn ",
"  k f d d eXg k f f d m eXf = = z k g = h d d 0X= h g f f f eXn z k g =   z g l d h f h l f eXn   l g k z g eX0X0X= g f f f eXn ",
"  k g d d eXf k g f f m 0Xd = m z k g = h d d eX= f h f f f eXn z k g = z l d k eXf eXg l f eXn   k d g z g eX0X0X= h f f f eXn ",
"  k g d d eXd k h f f 0Xm eX= 0Xz k g = h d d eX= eXk g f f eXn z k g = z k d h eXeXm h k f eXn   h eXf z g eX0X0X= k g f f eXn ",
"  l g d d d eXg k f f eX= 0X= d z k g = k d d eX= m l h f f 0Xn z k g = l h d g eX0Xm k h f 0Xn   g 0Xd l g eX0X0X= l h f f 0Xn ",
"  l g d d d eXf k f f d = m = f z k g = k d d eXm = z k f f m n z k g = l g d f eX0Xm l g f m n   g 0Xd l f eX0X0X= z k f f m n ",
"  z h f d d eXd l g f f m = = f z k g = k d d eXm = z k f f = n z k g = k f d f eXm 0Xz g f = n   f 0Xd l f eX0X0X= z k f f = n ",
"  z h f d d d eXl h f f 0X= = f z k g m k d d eXm = z k f f = n z k g m k d d d 0X= eXz f f = n   f 0Xd k d eX0X0X= z k f f = n ",
"  z h g d d d 0Xl k f f eX= = f z k g 0Xk d d 0Xm = z h f f = n z k g 0Xk d d eXm = d l f f = n z f 0Xd k d eX0Xm = z h f f = n ",
"    h g d d d 0Xh l f f d = = d z l g eXk d d 0X= m z h f f = n z l g eXk d d eX= m f k f f = n z f 0Xd k d 0X0X= m z h f f = n ",
"    h g d d d 0Xf l f f f m = eXz l h d k d d m = 0Xz g f f = n z l h d k d d eX= 0Xg h f f = n z g 0Xd k d 0XeX= 0Xz g f f = n ",
"    k h d d d 0XeXk h f f 0X= 0Xz l k f k d d m m eXz g f f = n z l k f k d d eXm eXh g f f = n z h eXf k d 0XeXm eXz g f f = n ",
"  z k h d d d eX0Xh k f f eX= m z l k g h d d 0Xm d l f f f = n z l k g h d d eXm d l f f f = n z k d g h d eXeXm d l f f f = n ",
"z z k h f d d eX0Xf l f f d = = z l k h g d d eX0Xf l f f f = n z l k h g d d eX0Xf l f f f = n z l g h g d d eX0Xf l f f f = n ",
"z l k h f d d eX0Xf l f f f = n z l k h f d d eX0Xf l f f f m n z l k h f d d eX0Xf l f f f = n z l k h f d d eX0Xf l f f f = n ",
"z l h k f d d eXm d l g f f = n z l h h f d d eXm d l f f f = n z l k h g d d eX0Xf k f f f m n z l h h f d d eXm d l g f f = n ",
"z l g k f d d eXm eXl g f f = n z l g h f d d eXm eXl g f f = n z l h h g d d eX0Xf k g f f 0Xn z l g h f d d eXm eXl g f f = n ",
"z k f k g d d eXm 0Xl h f f = n z k f h f d eXeX= 0Xl g f f = n z l h h g d d eX0Xd k h f f 0Xn z k f h f d d eX= 0Xl h f f = n ",
"z h d k g f d d 0Xm h l f f n = z h d h f d eXeX= m l g f f n = z l h g h d d d 0Xd h k f f eXn z h d h f d d eX= m k k f f n = ",
"z g d k h f d d eXm f l f f n = z g eXh g d eXeXm = l h g f n = z k g f h d d d 0Xd h k f f eXn z g d h g d d eXm = h k f f n = ",
"z g d g k f d d eXm eXl f f n m z g eXg h d 0XeX0X= l h g f n m z k g d h d d d 0XeXg k f f eXn z g d g h d d d 0X= g k f f n m ",
"z g eXf k g d d d 0Xm l f f n 0Xz g 0Xf h d 0XeX0X= l h g f n 0Xz k g d h f d d 0XeXf h f f d n z g eXf h d d d 0X= g k f f n 0X",
"z g 0Xd k g d d d eXm l f f = 0Xz g 0Xd k d 0X0X0X= l h g f = 0Xz k g d h g d d eX0Xf h f f d n z g 0Xd h d d d 0X= g k f f = 0X",
"z h 0XeXk g d d d eXm l f f = eXz g 0XeXl d eX0X0X= l h g f = eXz k f d g h d d eX0Xf h f f d n z h 0XeXh d d d 0X= h k f f = eX",
"z h eX0Xl g d d d eXm l f f = eXz g eX0Xl d eX0X0X= l h f f = eXz k f d f h d d eX0Xf g f f d n z h eX0Xh d d d 0X= k h f f = eX",
"z k d 0Xl g f eXd eXm l f f = eXz g eX0Xl d eX0X0X= l g f f = eXz h f d d k f d d 0Xf f f f d n z k d 0Xh d d d m = l h f f = eX",
"z k f 0Xl h f eXg eXm l f f = 0Xz h d 0Xl f eXeX0X= l g f f = 0Xz h d d d k f d d 0Xf f f f d n z k f 0Xh d d d = m l g f f = 0X",
"z k g m z h f 0Xk d 0Xl f f = m z k d 0Xl f eXeX0X= k f f f = m z h d d d k g d f 0Xd f f f d = z k g m h d d eX= eXk f f f = m ",
"z k g = z h g eXf eX0Xl f f = =   l g 0Xz f eXeX0X= h f f f = = z h d d eXk h f f 0XeXd f f eX= z k g = h d d eX= f h f f f = = ",
"z k g = z k h f eX0Xd z g f = =   z k d z f eXeX0X= g f f f = = z h d d eXh k f f eX0XeXf f eX= z k g = h d d 0X= h g f f f = = ",
"z k g =   z k h f d k z h f m n     l h z g eXeX0X= g f f f m n   h d d eXg k g f d m 0Xf f eX= z k g = h d d 0X= l g f f f m n ",
"z k g =     z z z z z z k f 0Xn         z g eXeX0X= g f f f 0Xn   k d d eXf k h f f 0Xm f f 0X= z k g = h d d 0X= l g f f f 0Xn ",
"z k g =   z k z g l h l l f eXn   z k l   g eX0X0X= g f f f eXn   k f d eXd h k f f eXm d f m = z k g = h d d 0X= l g f f f eXn ",
"z k g =   z g l d h f h l f eXn   l g k z g eX0X0X= g f f f eXn   k f d d eXg k f f d m eXf = = z k g = h d d 0X= h g f f f eXn ",
"z k g = z l d k eXf eXg l f eXn   k d g z g eX0X0X= h f f f eXn   k g d d eXf k g f f m 0Xd = m z k g = h d d eX= f h f f f eXn ",
"z k g = z k d h eXeXm h k f eXn   h eXf z g eX0X0X= k g f f eXn   k g d d eXd k h f f 0Xm eX= 0Xz k g = h d d eX= eXk g f f eXn ",
"z k g = l h d g eX0Xm k h f 0Xn   g 0Xd l g eX0X0X= l h f f 0Xn   l g d d d eXg k f f eX= 0X= d z k g = k d d eX= m l h f f 0Xn ",
"z k g = l g d f eX0Xm l g f m n   g 0Xd l f eX0X0X= z k f f m n   l g d d d eXf k f f d = m = f z k g = k d d eXm = z k f f m n ",
"z k g = k f d f eXm 0Xz g f = n   f 0Xd l f eX0X0X= z k f f = n   z h f d d eXd l g f f m = = f z k g = k d d eXm = z k f f = n ",
"z k g m k d d d 0X= eXz f f = n   f 0Xd k d eX0X0X= z k f f = n   z h f d d d eXl h f f 0X= = f z k g m k d d eXm = z k f f = n ",
"z k g 0Xk d d eXm = d l f f = n z f 0Xd k d eX0Xm = z h f f = n   z h g d d d 0Xl k f f eX= = f z k g 0Xk d d 0Xm = z h f f = n ",
"z l g eXk d d eX= m f k f f = n z f 0Xd k d 0X0X= m z h f f = n     h g d d d 0Xh l f f d = = d z l g eXk d d 0X= m z h f f = n ",
"z l h d k d d eX= 0Xg h f f = n z g 0Xd k d 0XeX= 0Xz g f f = n     h g d d d 0Xf l f f f m = eXz l h d k d d m = 0Xz g f f = n ",
"z l k f k d d eXm eXh g f f = n z h eXf k d 0XeXm eXz g f f = n     k h d d d 0XeXk h f f 0X= 0Xz l k f k d d m m eXz g f f = n ",
"z l k g h d d eXm d l f f f = n z k d g h d eXeXm d l f f f = n   z k h d d d eX0Xh k f f eX= m z l k g h d d 0Xm d l f f f = n ",
"z l k h g d d eX0Xf l f f f = n z l g h g d d eX0Xf l f f f = n z z k h f d d eX0Xf l f f d = = z l k h g d d eX0Xf l f f f = n "
};
